<svg id="Capa_1" enable-background="new 0 0 512 512" height="512" viewBox="0 0 512 512" width="512" xmlns="http://www.w3.org/2000/svg"><g><g><path d="m477.098 307.5c4.142 0 7.5-3.358 7.5-7.5v-86.845c0-9.649-7.851-17.5-17.5-17.5h-28.306v-175.853c0-10.919-8.883-19.802-19.802-19.802h-241.646c-10.919 0-19.802 8.883-19.802 19.802v66.226h-26.62c-.074-.29-.155-.579-.248-.866-1.617-4.978-5.839-8.538-11.02-9.291l-19.373-2.815-8.663-17.556c-2.316-4.694-7.007-7.609-12.242-7.609-5.234 0-9.925 2.916-12.241 7.609l-8.664 17.554-19.372 2.816c-5.18.753-9.402 4.313-11.019 9.291s-.293 10.34 3.455 13.993l14.018 13.664-3.309 19.294c-.885 5.159 1.196 10.275 5.431 13.352 2.393 1.738 5.192 2.622 8.011 2.622 2.169 0 4.351-.523 6.366-1.583l2.261-1.189v140.834c0 9.649 7.851 17.5 17.5 17.5h75.731v188.55c0 10.919 8.883 19.802 19.802 19.802h241.644c10.919 0 19.802-8.883 19.802-19.802v-109.1h28.306c9.649 0 17.5-7.851 17.5-17.5v-30.598c0-4.142-3.358-7.5-7.5-7.5s-7.5 3.358-7.5 7.5v30.599c0 1.378-1.122 2.5-2.5 2.5h-231.274c-1.378 0-2.5-1.122-2.5-2.5v-61.95h16.848c.668 0 1.296.26 1.768.732l36.079 36.079c2.397 2.397 5.58 3.667 8.826 3.667 1.612 0 3.241-.313 4.796-.958 4.688-1.942 7.716-6.475 7.716-11.549v-25.472c0-1.378 1.122-2.5 2.5-2.5h45.201c9.649 0 17.5-7.851 17.5-17.5v-75.493h92.54c1.378 0 2.5 1.122 2.5 2.5v86.845c0 4.142 3.358 7.5 7.5 7.5zm-419.609-175.546 2.967-17.3c.759-4.429-.709-8.946-3.926-12.082l-12.568-12.251 17.369-2.524c4.447-.646 8.29-3.438 10.279-7.467l7.768-15.739 7.768 15.739c1.989 4.03 5.832 6.821 10.278 7.467l17.369 2.524-12.568 12.251c-3.217 3.136-4.685 7.652-3.926 12.083l2.967 17.299-15.536-8.167c-1.989-1.046-4.17-1.568-6.352-1.568s-4.364.522-6.353 1.568zm178.335 251.145h187.968v45.859h-45.791c-4.142 0-7.5 3.358-7.5 7.5s3.358 7.5 7.5 7.5h45.791v48.24c0 2.648-2.154 4.802-4.802 4.802h-241.646c-2.648 0-4.802-2.154-4.802-4.802v-48.24h170.459c4.142 0 7.5-3.358 7.5-7.5s-3.358-7.5-7.5-7.5h-170.459v-125.31h45.782v61.95c0 9.65 7.851 17.501 17.5 17.501zm131.234-224.599c-4.142 0-7.5 3.358-7.5 7.5v120.148c0 1.378-1.122 2.5-2.5 2.5h-45.201c-9.649 0-17.5 7.851-17.5 17.5v19.437l-31.812-31.813c-3.306-3.305-7.7-5.125-12.374-5.125h-168.36c-1.378 0-2.5-1.122-2.5-2.5v-148.72l.066-.035 17.327 9.109c4.633 2.434 10.141 2.038 14.376-1.039 4.234-3.077 6.315-8.193 5.431-13.352l-3.309-19.294 12.096-11.791h231.76c1.378 0 2.5 1.122 2.5 2.5v27.475c0 4.142 3.358 7.5 7.5 7.5s7.5-3.358 7.5-7.5v-27.473c0-9.649-7.851-17.5-17.5-17.5h-184.516v-66.225c0-2.647 2.154-4.802 4.802-4.802h241.646c2.648 0 4.802 2.154 4.802 4.802v175.854h-49.234v-29.656c0-4.142-3.358-7.5-7.5-7.5z"/><path d="m332.239 39.981h-77c-4.142 0-7.5 3.358-7.5 7.5s3.358 7.5 7.5 7.5h77c4.142 0 7.5-3.358 7.5-7.5s-3.358-7.5-7.5-7.5z"/><circle cx="355.739" cy="47.481" r="7.5"/><path d="m299.397 137.717h-159.925c-4.142 0-7.5 3.358-7.5 7.5s3.358 7.5 7.5 7.5h159.925c4.142 0 7.5-3.358 7.5-7.5s-3.358-7.5-7.5-7.5z"/><path d="m299.397 170.645h-159.925c-4.142 0-7.5 3.358-7.5 7.5s3.358 7.5 7.5 7.5h159.925c4.142 0 7.5-3.358 7.5-7.5s-3.358-7.5-7.5-7.5z"/><path d="m299.397 203.572h-159.925c-4.142 0-7.5 3.358-7.5 7.5s3.358 7.5 7.5 7.5h159.925c4.142 0 7.5-3.358 7.5-7.5s-3.358-7.5-7.5-7.5z"/><path d="m219.098 236.5h-79.626c-4.142 0-7.5 3.358-7.5 7.5s3.358 7.5 7.5 7.5h79.626c4.142 0 7.5-3.358 7.5-7.5s-3.358-7.5-7.5-7.5z"/><path d="m317.85 462.555h-39.366c-4.142 0-7.5 3.358-7.5 7.5s3.358 7.5 7.5 7.5h39.366c4.142 0 7.5-3.358 7.5-7.5s-3.358-7.5-7.5-7.5z"/><path d="m443.098 240.5h-50c-4.142 0-7.5 3.358-7.5 7.5s3.358 7.5 7.5 7.5h50c4.142 0 7.5-3.358 7.5-7.5s-3.358-7.5-7.5-7.5z"/><path d="m443.098 268.5h-50c-4.142 0-7.5 3.358-7.5 7.5s3.358 7.5 7.5 7.5h50c4.142 0 7.5-3.358 7.5-7.5s-3.358-7.5-7.5-7.5z"/><path d="m443.098 296.5h-50c-4.142 0-7.5 3.358-7.5 7.5s3.358 7.5 7.5 7.5h50c4.142 0 7.5-3.358 7.5-7.5s-3.358-7.5-7.5-7.5z"/><path d="m443.098 324.5h-109c-4.142 0-7.5 3.358-7.5 7.5s3.358 7.5 7.5 7.5h109c4.142 0 7.5-3.358 7.5-7.5s-3.358-7.5-7.5-7.5z"/></g></g></svg>